JoggingL1_filt_ID.mot
version=1
datacolumns 20
datarows 25
range 0.710000 0.950000
inDegrees=yes
endheader
time	pelvis_tilt	pelvis_list	pelvis_rotation	hip_flexion_r	hip_adduction_r	hip_rotation_r	knee_angle_r	ankle_angle_r	hip_flexion_l	hip_adduction_l	hip_rotation_l	knee_angle_l	ankle_angle_l	pelvis_tx	pelvis_ty	pelvis_tz	lumbar_bending	lumbar_rotation	lumbar_extension
0.710000	20.089688	-0.522970	-181.760478	1.804525	-1.580840	-5.926617	-18.370967	-2.185339	50.598438	-2.051817	-0.381254	-24.239079	7.199773	1.407710	0.934031	0.047143	8.783925	-2.205918	-1.492176
0.720000	19.924638	-0.284102	-182.010968	1.114459	-1.488390	-5.667037	-19.048959	-4.800298	49.829516	-2.009256	0.007772	-21.399034	7.263156	1.386549	0.934986	0.047374	8.896241	-2.219680	-1.271450
0.730000	19.803112	-0.011427	-182.283005	0.691728	-1.389431	-5.385157	-20.133004	-7.311599	49.158363	-2.065022	0.375107	-19.208201	7.373290	1.365359	0.935226	0.047642	8.953613	-2.209821	-0.983545
0.740000	19.741510	0.266882	-182.566530	0.556192	-1.312020	-5.115431	-21.612238	-9.733206	48.617937	-2.175240	0.730591	-17.708787	7.457618	1.344202	0.934775	0.047965	8.948726	-2.200520	-0.624296
0.750000	19.748982	0.523232	-182.846273	0.719651	-1.280954	-4.874105	-23.465819	-12.076113	48.240881	-2.293328	1.074140	-16.931151	7.418475	1.323158	0.933681	0.048358	8.876700	-2.212988	-0.200264
0.760000	19.817719	0.732502	-183.104826	1.175217	-1.317453	-4.648657	-25.664150	-14.337387	48.049427	-2.378624	1.389028	-16.893952	7.161378	1.302323	0.932010	0.048824	8.736715	-2.264544	0.263312
0.770000	19.924634	0.876686	-183.326337	1.899578	-1.435679	-4.409972	-28.175497	-16.467163	48.051011	-2.405401	1.651083	-17.595952	6.642939	1.281805	0.929837	0.049352	8.533245	-2.366215	0.727308
0.780000	20.044793	0.952004	-183.499486	2.867709	-1.635505	-4.140374	-30.972457	-18.352828	48.242314	-2.370000	1.845950	-19.002947	5.908784	1.261697	0.927236	0.049929	8.275041	-2.517728	1.155595
0.790000	20.160513	0.970731	-183.620450	4.062605	-1.901594	-3.850095	-34.033029	-19.849336	48.607262	-2.289936	1.975359	-21.034890	5.091411	1.242061	0.924267	0.050545	7.973457	-2.705429	1.526024
0.800000	20.257680	0.954024	-183.695985	5.471851	-2.212831	-3.569094	-37.339051	-20.823875	49.105003	-2.194479	2.046173	-23.561964	4.369290	1.222923	0.920985	0.051190	7.642291	-2.907239	1.826397
0.810000	20.320223	0.921010	-183.743691	7.082253	-2.554246	-3.327470	-40.874876	-21.181075	49.665135	-2.112299	2.056539	-26.417304	3.913985	1.204279	0.917447	0.051856	7.297468	-3.101809	2.047194
0.820000	20.336125	0.881715	-183.786587	8.884652	-2.921957	-3.142719	-44.624395	-20.876307	50.205480	-2.061654	1.996392	-29.424656	3.851168	1.186098	0.913728	0.052533	6.953405	-3.275880	2.185428
0.830000	20.310656	0.836187	-183.845298	10.884006	-3.319745	-3.016383	-48.564505	-19.927706	50.662128	-2.046603	1.858512	-32.428741	4.244201	1.168310	0.909918	0.053204	6.617975	-3.426836	2.255675
0.840000	20.272840	0.778126	-183.933608	13.102237	-3.751395	-2.934205	-52.657121	-18.417972	51.009120	-2.060590	1.645927	-35.314485	5.096329	1.150820	0.906120	0.053850	6.290336	-3.560550	2.294519
0.850000	20.267196	0.700136	-184.056422	15.567114	-4.214119	-2.868936	-56.843078	-16.478469	51.254863	-2.092491	1.373921	-38.008465	6.363591	1.133518	0.902436	0.054456	5.960170	-3.686109	2.351030
0.860000	20.335035	0.597241	-184.207544	18.292529	-4.697239	-2.787643	-61.040828	-14.263279	51.420180	-2.128936	1.069536	-40.466408	7.968713	1.116307	0.898963	0.055011	5.606619	-3.810570	2.468062
0.870000	20.500195	0.467333	-184.370898	21.266762	-5.185130	-2.663555	-65.151810	-11.926457	51.517755	-2.154983	0.764118	-42.658621	9.810216	1.099118	0.895784	0.055517	5.201750	-3.936257	2.669252
0.880000	20.765392	0.309896	-184.527917	24.454430	-5.660643	-2.487749	-69.071693	-9.598627	51.544005	-2.157295	0.477294	-44.563395	11.772110	1.081918	0.892965	0.055975	4.721622	-4.060814	2.957159
0.890000	21.113148	0.125054	-184.665826	27.801798	-6.107434	-2.273240	-72.702620	-7.357146	51.478818	-2.128043	0.204786	-46.168941	13.740375	1.064704	0.890561	0.056381	4.158704	-4.179000	3.315803
0.900000	21.511028	-0.085239	-184.779874	31.241488	-6.511044	-2.049306	-75.960041	-5.217156	51.291308	-2.066208	-0.075683	-47.476241	15.618260	1.047492	0.888615	0.056723	3.526424	-4.284359	3.716823
0.910000	21.921009	-0.314562	-184.868792	34.697015	-6.859049	-1.851054	-78.772865	-3.162363	50.948025	-1.975834	-0.387315	-48.494951	17.330449	1.030301	0.887162	0.056969	2.852879	-4.369903	4.128823
0.920000	22.305892	-0.551247	-184.929124	38.084543	-7.141765	-1.710267	-81.082521	-1.180527	50.415294	-1.862657	-0.744960	-49.232652	18.822223	1.013136	0.886236	0.057074	2.168796	-4.429202	4.522619
0.930000	22.630574	-0.780611	-184.953688	41.313372	-7.354221	-1.648555	-82.843495	0.726953	49.656357	-1.730836	-1.154702	-49.684856	20.063557	0.995981	0.885876	0.056985	1.496858	-4.458217	4.870574
0.940000	22.865349	-0.987220	-184.933254	44.292248	-7.497315	-1.672495	-84.021908	2.549022	48.634461	-1.581081	-1.612387	-49.832780	21.054418	0.978800	0.886119	0.056658	0.845180	-4.455012	5.147961
0.950000	22.994135	-1.155545	-184.858796	46.943325	-7.576339	-1.773822	-84.592400	4.270918	47.325242	-1.410972	-2.101133	-49.649958	21.821775	0.961531	0.886992	0.056075	0.206056	-4.416621	5.340038
